# xmcd CD database file generated by OrangeCD 6.1
#
# Track frame offsets:
#	150
#	15149
#	28422
#	42142
#	56048
#	69791
#	84059
#	100996
#	117893
#	133399
#	145692
#	164786
#	182585
#	199806
#	212244
#	227819
#	246711
#	270810
#	285760
#	302066
#
# Disc length: 4233 seconds
#
# Revision: 0
# Processed by: cddbd v1.5.2PL0 Copyright (c) Steve Scherf et al.
# Submitted via: OrangeCD 6.1
#
DISCID=16108714
DTITLE=Bonnie Raitt - Home Plate (1975) - Sweet Forgiveness (1977)
DYEAR=1900
DGENRE=
TTITLE0=What Do You Want The Boy To Do?
TTITLE1=Good Enough
TTITLE2=Run Like A Thief
TTITLE3=Fool Yourself
TTITLE4=My First Night Alone Without You
TTITLE5=Walk Out The Front Door
TTITLE6=Sugar Mama
TTITLE7=Pleasin' Each Other
TTITLE8=I'm Blowin' Away
TTITLE9=Your Sweet And Shiny Eyes
TTITLE10=About To Make Me Leave Home
TTITLE11=Runaway
TTITLE12=Two Lives
TTITLE13=Louise
TTITLE14=Gamblin' Man
TTITLE15=Sweet Forgiveness
TTITLE16=My Opening Farewell
TTITLE17=Three Time Loser
TTITLE18=Takin' My Time
TTITLE19=Home
EXTD=
EXTT0=
EXTT1=
EXTT2=
EXTT3=
EXTT4=
EXTT5=
EXTT6=
EXTT7=
EXTT8=
EXTT9=
EXTT10=
EXTT11=
EXTT12=
EXTT13=
EXTT14=
EXTT15=
EXTT16=
EXTT17=
EXTT18=
EXTT19=
PLAYORDER=
